<?xml version="1.0" standalone="no"?>
<!DOCTYPE svg PUBLIC "-//W3C//DTD SVG 20010904//EN"
 "http://www.w3.org/TR/2001/REC-SVG-20010904/DTD/svg10.dtd">
<svg version="1.0" xmlns="http://www.w3.org/2000/svg"
 width="250.000000pt" height="150.000000pt" viewBox="0 0 250.000000 150.000000"
 preserveAspectRatio="xMidYMid meet">

<g transform="translate(0.000000,150.000000) scale(0.100000,-0.100000)"
fill="#000000" stroke="none">
<path d="M1970 1470 c-94 -12 -1338 -155 -1573 -182 -108 -12 -202 -25 -208
-29 -17 -10 -2 -79 17 -79 8 0 26 -11 39 -25 35 -34 33 -79 -5 -115 -31 -29
-35 -45 -24 -99 4 -20 12 -31 24 -31 27 0 60 -43 60 -79 0 -24 -9 -41 -31 -62
-29 -27 -31 -33 -24 -75 4 -29 12 -47 23 -51 67 -24 85 -105 32 -145 -32 -23
-38 -53 -18 -80 14 -17 25 -16 628 56 69 8 391 45 715 82 325 37 593 70 596
73 4 3 5 21 2 39 -4 26 -12 36 -35 44 -35 12 -61 58 -52 93 3 14 19 36 35 48
27 21 29 26 23 71 -6 41 -11 49 -36 58 -29 10 -58 52 -58 84 0 9 15 31 34 49
31 29 34 35 29 79 -5 42 -9 48 -39 61 -33 13 -54 46 -54 82 0 9 15 30 34 47
27 27 32 37 28 64 -4 31 -6 32 -51 31 -25 -1 -75 -5 -111 -9z m5 -132 c25
-184 73 -634 67 -639 -8 -8 -117 -22 -622 -79 -347 -39 -478 -54 -738 -85 -70
-8 -154 -16 -187 -18 l-59 -2 -39 334 c-21 184 -34 337 -30 341 4 5 350 47
768 95 418 47 765 88 770 90 6 2 22 4 37 4 24 1 27 -3 33 -41z"/>
<path d="M1720 1249 c-36 -4 -303 -35 -595 -68 -656 -75 -607 -68 -603 -94 2
-18 9 -22 33 -20 148 12 1272 147 1279 153 15 15 -2 40 -26 39 -13 -1 -52 -5
-88 -10z"/>
<path d="M1500 1081 c-39 -7 -48 -34 -13 -39 18 -3 22 -12 28 -65 9 -86 13
-97 37 -97 19 0 20 4 13 84 -6 80 -6 83 15 89 12 3 20 12 18 19 -5 15 -46 19
-98 9z"/>
<path d="M1737 1084 c-4 -4 -7 -17 -7 -30 0 -17 -8 -23 -37 -29 l-38 -7 28
-20 c21 -15 27 -28 27 -56 l0 -35 25 23 c25 23 26 24 55 6 32 -18 37 -11 20
29 -6 15 -1 27 18 48 l26 27 -42 0 c-23 0 -42 4 -42 8 0 15 -26 43 -33 36z"/>
<path d="M1347 1063 c-14 -4 -17 -11 -13 -31 3 -15 8 -57 12 -95 3 -37 11 -70
16 -73 5 -3 31 -3 58 1 40 6 50 11 50 26 0 15 -7 19 -34 19 -21 0 -36 6 -39
15 -7 16 -3 20 36 29 37 9 30 30 -11 34 -42 4 -46 39 -5 44 17 2 29 10 31 21
3 14 -4 17 -40 16 -24 -1 -51 -3 -61 -6z"/>
<path d="M1253 1025 c-18 -38 -33 -37 -33 1 0 24 -14 30 -37 16 -9 -6 -9 -29
0 -102 11 -84 14 -95 32 -95 15 0 21 8 23 33 4 40 13 40 35 2 17 -28 50 -40
61 -22 3 4 -9 30 -26 56 -33 51 -33 45 -1 134 3 7 -3 12 -16 12 -14 0 -27 -11
-38 -35z"/>
<path d="M1045 1015 c-27 -26 -30 -55 -15 -120 11 -50 42 -77 79 -69 45 10 80
71 52 88 -18 11 -41 -6 -41 -31 0 -18 -5 -24 -17 -21 -23 4 -42 113 -24 131
10 9 15 8 25 -5 7 -10 23 -18 35 -18 18 0 21 4 16 23 -16 51 -71 62 -110 22z"/>
<path d="M943 978 c4 -24 9 -69 13 -100 6 -53 8 -58 31 -58 24 0 25 2 20 43
-4 23 -9 68 -13 100 -6 52 -8 57 -31 57 -24 0 -25 -2 -20 -42z"/>
<path d="M817 1003 c-34 -5 -34 -36 -1 -41 19 -3 23 -12 30 -80 8 -67 11 -77
29 -77 19 0 20 6 17 81 -3 76 -2 82 18 87 12 3 20 12 18 19 -5 13 -60 19 -111
11z"/>
<path d="M633 940 c-8 -30 -14 -35 -41 -38 -39 -4 -40 -14 -6 -37 23 -14 25
-21 19 -52 l-6 -35 31 22 c27 19 35 21 57 11 32 -15 37 -10 22 23 -11 23 -9
29 11 51 l23 25 -34 0 c-30 0 -38 5 -51 33 l-16 32 -9 -35z"/>
<path d="M1210 750 c-322 -38 -596 -70 -610 -72 -17 -2 -26 -10 -28 -25 -4
-29 -9 -29 253 2 423 49 485 57 768 89 158 18 290 36 293 39 4 3 4 13 1 22 -9
22 -27 21 -677 -55z"/>
<path d="M1657 515 c-92 -12 -116 -20 -482 -180 -211 -92 -390 -165 -397 -162
-8 2 -35 55 -62 117 l-49 111 -51 -6 c-36 -5 -59 -15 -78 -33 l-27 -27 21 -47
c18 -42 24 -48 50 -48 64 0 100 -80 59 -131 -17 -22 -18 -28 -5 -57 7 -18 18
-32 23 -32 6 0 133 53 283 119 150 65 406 176 568 246 162 71 299 132 305 137
12 11 -37 9 -158 -7z"/>
<path d="M1090 450 c-42 -6 -219 -76 -237 -94 -7 -6 10 -36 19 -36 14 0 291
120 303 131 10 10 -3 10 -85 -1z"/>
</g>
</svg>
