<?xml version="1.0" standalone="no"?>
<!DOCTYPE svg PUBLIC "-//W3C//DTD SVG 20010904//EN"
 "http://www.w3.org/TR/2001/REC-SVG-20010904/DTD/svg10.dtd">
<svg version="1.0" xmlns="http://www.w3.org/2000/svg"
 width="250.000000pt" height="150.000000pt" viewBox="0 0 250.000000 150.000000"
 preserveAspectRatio="xMidYMid meet">

<g transform="translate(0.000000,150.000000) scale(0.100000,-0.100000)"
fill="#000000" stroke="none">
<path d="M320 1408 c-11 -25 -320 -1173 -320 -1188 0 -18 41 -22 59 -6 28 26
60 20 79 -14 22 -39 56 -48 93 -26 37 22 68 13 80 -24 13 -35 63 -49 90 -24
25 23 61 14 77 -19 15 -31 38 -45 53 -30 7 7 329 1184 329 1204 0 15 -45 17
-60 4 -9 -8 -29 -15 -44 -15 -22 0 -30 7 -39 30 -14 37 -55 48 -91 25 -32 -21
-62 -12 -81 25 -18 34 -59 47 -82 25 -22 -23 -65 -15 -79 14 -22 44 -50 52
-64 19z m241 -152 c111 -30 205 -58 210 -63 7 -7 -251 -987 -264 -999 -5 -5
-415 101 -424 109 -2 3 53 215 122 473 130 485 144 534 150 534 2 0 95 -24
206 -54z"/>
<path d="M385 1188 c-2 -7 -52 -190 -110 -407 -71 -263 -103 -397 -96 -404 7
-7 13 -2 20 14 11 24 207 746 213 783 3 22 -20 34 -27 14z"/>
<path d="M512 1130 c-7 -11 -20 -20 -30 -20 -16 -1 -16 -1 1 -14 9 -7 17 -20
17 -28 0 -9 11 -14 34 -15 28 -1 33 2 29 17 -3 10 0 21 6 24 17 11 13 26 -5
26 -9 0 -22 7 -28 15 -10 13 -13 13 -24 -5z"/>
<path d="M651 1088 c-9 -30 -70 -255 -171 -635 -23 -87 -34 -145 -28 -149 5
-3 12 -3 16 0 4 5 136 483 218 794 10 36 -23 27 -35 -10z"/>
<path d="M425 983 c-4 -16 -12 -48 -20 -73 -7 -25 -10 -48 -6 -52 4 -4 29 -14
56 -23 46 -14 51 -13 63 2 14 19 16 63 3 63 -5 0 -11 -9 -14 -20 -7 -26 -27
-26 -27 -1 0 26 -18 37 -26 17 -11 -28 -25 -17 -22 17 3 34 10 36 82 26 50 -7
42 19 -9 32 -26 7 -49 18 -52 25 -8 23 -22 16 -28 -13z"/>
<path d="M380 824 c0 -3 5 -14 10 -25 8 -15 7 -19 -5 -19 -8 0 -15 -6 -15 -14
0 -12 85 -46 114 -46 13 0 5 29 -9 38 -13 7 -12 10 10 20 42 19 31 34 -20 26
-36 -5 -46 -3 -51 10 -6 15 -34 23 -34 10z"/>
<path d="M348 704 c-11 -23 -10 -29 11 -45 35 -29 91 -36 108 -14 17 25 17 50
-2 65 -13 11 -18 11 -28 0 -9 -10 -9 -13 1 -17 13 -5 17 -33 3 -33 -18 0 -71
22 -71 30 0 4 7 10 15 14 22 8 18 26 -5 26 -12 0 -25 -11 -32 -26z"/>
<path d="M330 612 c0 -10 -4 -22 -9 -27 -12 -14 -22 -61 -14 -68 3 -4 12 -2
20 5 10 8 24 8 55 -1 49 -15 79 1 35 19 -15 5 -38 14 -52 20 -35 14 -34 44 1
36 70 -18 84 -19 84 -4 0 9 -17 20 -39 26 -56 17 -81 15 -81 -6z"/>
<path d="M331 442 c-7 -12 -19 -22 -28 -22 -13 0 -14 -3 -5 -12 7 -7 12 -23
12 -36 0 -20 3 -22 15 -12 8 6 23 9 35 5 15 -5 20 -2 20 14 0 10 3 26 6 35 4
10 1 16 -9 16 -9 0 -20 7 -25 17 -9 14 -11 14 -21 -5z"/>
<path d="M1458 1220 c-104 -55 -136 -240 -49 -285 59 -30 142 -10 181 45 25
35 25 36 -1 43 -16 4 -30 -4 -54 -29 -37 -39 -66 -43 -96 -13 -18 18 -21 30
-17 80 5 66 27 105 73 128 35 17 72 2 81 -34 4 -18 11 -24 21 -21 8 3 19 6 24
6 13 0 11 42 -4 61 -32 42 -99 50 -159 19z"/>
<path d="M980 1210 c0 -17 7 -20 39 -20 22 0 42 -3 45 -8 2 -4 -6 -59 -19
-122 -13 -63 -24 -118 -25 -122 0 -5 13 -8 28 -8 28 0 28 0 53 128 l24 127 45
3 c41 3 59 14 60 35 0 4 -56 7 -125 7 -118 0 -125 -1 -125 -20z"/>
<path d="M1275 1208 c-7 -29 -55 -270 -55 -274 0 -2 13 -4 28 -4 28 0 28 0 55
138 15 76 27 144 27 150 0 7 -11 12 -25 12 -17 0 -26 -7 -30 -22z"/>
<path d="M1695 1208 c-7 -29 -55 -270 -55 -274 0 -2 13 -4 29 -4 27 0 30 3 36
49 4 33 15 57 31 72 l24 23 32 -72 c30 -68 33 -72 65 -72 l33 0 -34 68 c-57
114 -57 108 15 174 62 55 63 57 35 58 -22 0 -47 -17 -104 -67 -62 -56 -74 -63
-69 -43 3 14 9 44 13 68 6 40 6 42 -20 42 -18 0 -27 -6 -31 -22z"/>
<path d="M1985 1208 c-7 -30 -55 -270 -55 -275 0 -2 48 -2 107 -1 93 3 108 5
111 21 3 15 -6 17 -72 17 -74 0 -76 1 -76 24 0 14 4 36 10 50 9 24 15 26 64
26 50 0 66 9 66 36 0 2 -27 4 -60 4 l-60 0 6 28 c3 15 7 33 10 40 2 8 27 12
78 12 70 0 86 7 86 36 0 2 -47 4 -105 4 -100 0 -105 -1 -110 -22z"/>
<path d="M2230 1210 c0 -17 7 -20 39 -20 22 0 42 -3 45 -8 2 -4 -6 -59 -19
-122 -13 -63 -24 -118 -25 -122 0 -5 13 -8 28 -8 28 0 28 0 53 128 l24 127 45
3 c41 3 59 14 60 35 0 4 -56 7 -125 7 -118 0 -125 -1 -125 -20z"/>
<path d="M805 958 c-24 -78 -27 -147 -17 -403 5 -142 5 -235 0 -242 -6 -7 -41
-13 -86 -15 l-76 -3 -8 -33 c-18 -68 44 -100 90 -47 27 30 66 32 85 4 10 -13
23 -19 39 -17 22 3 23 5 20 93 -9 306 -24 710 -27 713 -2 2 -11 -20 -20 -50z"/>
<path d="M1510 670 c-20 -28 -20 -30 -3 -30 11 0 32 14 48 30 l29 30 -26 0
c-18 0 -34 -10 -48 -30z"/>
<path d="M1713 605 c-20 -9 -39 -28 -50 -50 -25 -52 -6 -82 67 -110 45 -17 56
-26 58 -47 4 -29 -28 -58 -64 -58 -22 0 -54 29 -54 49 0 13 -37 6 -54 -10 -13
-12 20 -58 50 -69 87 -33 184 21 184 103 0 31 -23 51 -85 74 -60 22 -71 52
-31 78 32 21 72 13 81 -16 4 -13 12 -18 22 -15 8 3 19 6 24 6 19 0 8 40 -17
59 -31 24 -84 27 -131 6z"/>
<path d="M1005 588 c-7 -29 -55 -270 -55 -274 0 -2 11 -4 24 -4 26 0 30 9 57
165 15 87 29 105 29 39 0 -28 3 -85 6 -127 l7 -77 32 0 c31 0 34 3 91 124 32
69 60 123 62 122 2 -3 -28 -160 -43 -223 -5 -20 -1 -23 23 -23 l28 0 27 138
c15 76 27 144 27 150 0 7 -16 12 -43 12 l-43 0 -54 -117 c-29 -65 -57 -122
-62 -128 -4 -5 -8 20 -8 57 0 36 -3 93 -6 127 l-7 61 -43 0 c-37 0 -44 -3 -49
-22z"/>
<path d="M1437 548 c-19 -35 -55 -102 -81 -150 l-46 -88 28 0 c23 0 32 8 50
45 21 44 22 45 71 45 l50 0 3 -42 c3 -39 6 -43 31 -46 32 -4 32 -14 10 161
l-16 137 -33 0 c-30 0 -36 -5 -67 -62z m63 -60 l0 -48 -35 0 c-19 0 -35 2 -35
5 0 2 12 29 27 60 31 62 43 57 43 -17z"/>
<path d="M1920 590 c0 -17 7 -20 39 -20 22 0 42 -3 45 -8 2 -4 -6 -59 -19
-122 -13 -63 -24 -118 -25 -122 0 -5 13 -8 28 -8 28 0 28 0 53 128 l24 127 45
3 c41 3 59 14 60 35 0 4 -56 7 -125 7 -118 0 -125 -1 -125 -20z"/>
<path d="M2215 588 c-7 -29 -55 -270 -55 -274 0 -2 14 -4 30 -4 20 0 30 5 30
15 0 7 5 37 11 65 10 46 13 50 39 50 27 0 31 -5 48 -62 17 -59 20 -63 50 -66
l31 -3 -23 69 -24 70 23 10 c58 27 74 115 25 139 -14 7 -60 13 -102 13 -72 0
-78 -2 -83 -22z m149 -33 c33 -33 -7 -75 -72 -75 l-44 0 7 37 c4 21 9 41 11
45 9 14 82 8 98 -7z"/>
<path d="M704 585 c-11 -24 -12 -170 -1 -181 19 -19 25 17 18 106 -5 71 -10
90 -17 75z"/>
</g>
</svg>
